<?xml version="1.0" standalone="no"?>
<!DOCTYPE svg PUBLIC "-//W3C//DTD SVG 20010904//EN"
 "http://www.w3.org/TR/2001/REC-SVG-20010904/DTD/svg10.dtd">
<svg version="1.0" xmlns="http://www.w3.org/2000/svg"
 width="251.000000pt" height="251.000000pt" viewBox="0 0 251.000000 251.000000"
 preserveAspectRatio="xMidYMid meet">
<metadata>
Created by potrace 1.11, written by Peter Selinger 2001-2013
</metadata>
<g transform="translate(0.000000,251.000000) scale(0.100000,-0.100000)"
fill="#000000" stroke="none">
<path d="M1068 2455 c-236 -37 -475 -161 -653 -340 -374 -373 -461 -935 -216
-1401 177 -336 500 -567 881 -629 286 -46 596 23 844 189 501 335 676 981 412
1521 -233 475 -744 741 -1268 660z m452 -65 c339 -84 607 -294 762 -597 255
-495 115 -1105 -330 -1440 -129 -97 -331 -190 -455 -208 -40 -6 -45 -4 -102
45 -33 28 -80 73 -105 100 -33 35 -55 50 -81 54 -34 6 -38 4 -57 -27 -11 -19
-54 -58 -95 -88 -42 -30 -74 -60 -72 -66 6 -16 13 -18 -89 17 -343 116 -618
393 -729 735 -174 535 68 1120 569 1377 122 62 208 90 384 122 65 12 317 -3
400 -24z m-317 -2117 c-7 -2 -13 -13 -13 -23 0 -18 2 -18 34 -5 33 14 34 14
80 -27 31 -28 46 -50 46 -66 0 -20 3 -22 14 -13 9 7 17 8 20 3 3 -6 -1 -13
-10 -16 -24 -9 -285 0 -312 11 -23 9 -23 10 17 36 23 15 43 22 46 17 3 -6 10
-10 16 -10 14 0 11 28 -3 33 -15 6 45 67 65 66 9 0 9 -2 0 -6z"/>
<path d="M1325 1814 c-21 -11 -35 -12 -50 -6 -35 17 -147 13 -167 -5 -10 -9
-35 -17 -55 -19 -26 -2 -43 -10 -53 -25 -8 -13 -29 -36 -46 -51 -33 -31 -61
-120 -49 -158 8 -24 21 -26 29 -4 4 11 13 14 27 11 12 -3 33 -1 48 5 14 6 32
12 40 14 8 1 18 9 22 16 5 7 12 13 16 13 4 1 17 6 28 12 16 9 34 8 75 -3 30
-8 68 -15 85 -16 29 -2 105 -35 105 -45 0 -3 -6 -3 -13 0 -22 8 -32 -17 -32
-79 0 -59 1 -63 42 -100 l43 -39 -88 -11 c-105 -12 -255 -7 -249 10 6 19 79
38 102 27 57 -27 87 -16 41 14 -24 16 -64 21 -134 17 -44 -3 -99 -57 -80 -79
9 -11 9 -16 -3 -24 -22 -14 -33 -11 -44 12 -15 33 -80 67 -102 53 -25 -16 -37
-39 -30 -58 6 -16 9 -16 22 -2 13 12 21 13 48 3 l32 -11 -40 -7 c-22 -3 -65
-15 -95 -26 -51 -18 -55 -22 -52 -49 2 -16 7 -31 11 -34 5 -3 13 -15 20 -27 6
-13 22 -25 35 -29 19 -4 23 -13 24 -45 2 -40 31 -108 91 -207 17 -30 38 -69
45 -87 9 -20 36 -49 65 -70 28 -20 51 -42 50 -48 0 -8 -2 -8 -6 1 -10 25 -21
11 -26 -35 -9 -78 21 -147 93 -216 33 -31 69 -57 80 -57 22 0 154 112 219 187
65 73 93 127 90 171 -10 140 -4 207 23 267 15 33 30 71 33 84 l7 23 -29 -22
c-26 -18 -33 -20 -56 -9 -30 14 -32 19 -14 38 10 11 10 13 0 7 -16 -9 -16 -1
-2 25 7 15 7 24 -1 35 -14 15 -5 84 10 84 5 0 21 11 36 25 33 30 69 41 87 27
10 -9 13 -4 15 18 1 17 9 63 16 103 13 64 12 80 -1 123 -25 81 -34 96 -113
172 -106 103 -171 134 -225 106z m135 -459 c0 -8 -2 -15 -4 -15 -2 0 -6 7 -10
15 -3 8 -1 15 4 15 6 0 10 -7 10 -15z m-402 -101 c6 -40 71 -55 121 -29 31 15
41 12 41 -16 0 -22 -34 -33 -104 -33 -47 -1 -50 0 -58 31 -5 18 -17 37 -29 43
-22 12 -16 33 9 28 10 -2 18 -13 20 -24z m152 11 c0 -17 -2 -18 -24 -9 -23 9
-20 24 4 24 11 0 20 -7 20 -15z m-370 -25 c0 -5 -12 -10 -27 -10 -22 0 -25 2
-13 10 20 13 40 13 40 0z m100 -10 c0 -5 -4 -10 -9 -10 -6 0 -13 5 -16 10 -3
6 1 10 9 10 9 0 16 -4 16 -10z m88 -45 c19 -27 42 -47 59 -51 39 -10 104 -52
102 -67 -3 -25 1 -38 11 -32 6 3 10 1 10 -4 0 -7 -32 -11 -84 -11 -46 0 -93
-3 -103 -7 -16 -6 -16 -5 -4 10 7 9 19 17 26 17 15 0 69 49 62 56 -3 3 -16 -1
-29 -9 -15 -10 -48 -15 -95 -15 l-72 0 14 29 c8 15 15 33 15 38 0 11 -27 10
-46 -2 -7 -4 -17 0 -24 8 -15 18 -15 17 27 32 27 9 32 8 35 -5 2 -12 10 -5 25
21 12 20 26 37 31 37 4 0 22 -20 40 -45z m352 37 c0 -4 -8 -18 -17 -32 -9 -13
-17 -38 -18 -54 -3 -53 -13 -66 -43 -55 -36 14 -56 5 -42 -20 19 -37 10 -35
-32 6 -24 23 -56 47 -73 54 l-30 12 47 11 c47 11 73 25 47 27 -8 0 4 6 26 14
22 7 58 20 80 29 46 18 55 19 55 8z m-530 -49 c0 -28 -16 -45 -36 -41 -26 4
-31 45 -7 51 35 9 43 7 43 -10z m15 -33 c3 -5 1 -10 -4 -10 -6 0 -11 5 -11 10
0 6 2 10 4 10 3 0 8 -4 11 -10z m35 -50 c0 -5 -3 -10 -7 -11 -5 0 -16 -2 -25
-4 -18 -3 -24 6 -11 18 10 11 43 8 43 -3z m353 -122 c-9 -29 -17 -68 -17 -86
-1 -22 -12 -43 -34 -64 -19 -20 -32 -27 -32 -18 0 9 -10 4 -29 -14 -24 -23
-32 -26 -49 -17 -12 6 -30 11 -41 11 -12 0 -21 4 -21 10 0 5 -3 9 -7 9 -5 -1
-15 -1 -23 0 -19 2 28 30 52 31 23 0 68 21 68 32 0 4 -9 8 -21 8 -11 0 -18 4
-15 8 3 5 -23 7 -57 6 -34 -1 -46 0 -27 3 19 2 42 11 51 19 9 8 20 14 25 13
31 -7 128 38 163 75 14 14 26 26 27 26 2 0 -4 -24 -13 -52z m-137 12 c24 0 16
-35 -8 -36 -22 -2 -54 -7 -110 -20 -23 -5 -28 -3 -28 14 0 11 9 23 23 27 40
14 82 22 95 19 8 -2 20 -4 28 -4z m39 -20 c3 -5 1 -10 -4 -10 -6 0 -11 5 -11
10 0 6 2 10 4 10 3 0 8 -4 11 -10z m334 -242 c-2 -2 -17 -14 -34 -28 l-30 -25
24 28 c14 15 29 27 34 27 6 0 8 -1 6 -2z m-69 -90 c-11 -10 -24 -17 -29 -14
-5 3 -14 -1 -21 -9 -9 -11 -9 -15 -1 -15 7 0 9 -5 6 -10 -4 -7 3 -9 22 -5 15
3 21 2 13 -2 -21 -9 -40 -30 -34 -36 3 -3 -2 -4 -13 -2 -10 2 -22 4 -26 4 -5
1 -5 6 -2 11 3 6 -5 10 -19 10 -14 0 -28 -5 -32 -11 -3 -6 -26 -19 -51 -30
-32 -14 -43 -24 -39 -34 9 -24 -10 -17 -28 10 -17 25 -17 26 9 19 22 -5 26 -3
25 12 -6 51 0 64 37 79 20 8 45 13 55 9 19 -6 19 -6 1 -27 -16 -19 -14 -18 17
3 19 13 37 27 40 30 16 18 57 36 73 32 17 -4 17 -6 -3 -24z"/>
<path d="M1240 540 c-8 -5 -10 -10 -5 -10 6 0 17 5 25 10 8 5 11 10 5 10 -5 0
-17 -5 -25 -10z"/>
<path d="M1592 1268 c-7 -7 -12 -17 -12 -24 0 -6 -11 -19 -25 -28 -20 -13 -23
-22 -18 -46 3 -19 1 -30 -6 -30 -6 0 -11 -7 -11 -15 0 -8 7 -15 15 -15 8 0 15
5 15 10 0 34 16 50 51 50 36 0 37 13 4 28 -29 13 -31 24 -10 42 13 10 19 10
34 -4 16 -15 18 -15 18 1 1 37 -31 55 -55 31z"/>
<path d="M1614 1128 l-19 -23 23 19 c21 18 27 26 19 26 -2 0 -12 -10 -23 -22z"/>
<path d="M1022 493 c-19 -51 -20 -60 -12 -73 6 -9 12 0 20 29 6 23 14 49 17
57 3 8 1 14 -5 14 -5 0 -14 -12 -20 -27z"/>
</g>
</svg>
