<svg version="1" xmlns="http://www.w3.org/2000/svg" width="346.667" height="346.667" viewBox="0 0 260.000000 260.000000"><path d="M64.2 74.3C59 79.8 62.9 88 70.6 88c4.6-.1 6.5-1.4 8.3-5.7 1.2-3.1 1.1-3.5-1.3-6.8-2.3-3-3.3-3.5-7-3.5-3.2 0-4.8.6-6.4 2.3zM108.5 78c-4.6 2.1-9.5 6.2-9.5 7.9 0 .6-.3 1.1-.7 1.1-1.8 0-3.3 5.8-3.3 12.2 0 7.9 1.5 11.2 8 17.4 1.4 1.3 2 2.4 1.3 2.4-1.5 0-9.3 7.3-9.3 8.8 0 .7-.4 1.2-.8 1.2-1.6 0-3.2 6.8-3.2 13.6 0 5.3.5 7.5 2 9.4 1.1 1.4 2 2.9 2 3.4 0 1.2 5.3 5.6 6.8 5.6.6 0 1.2.4 1.2 1 0 .5.9 1 1.9 1 1.1 0 2.3.4 2.6 1 .8 1.3 22.2 1.3 23 0 .3-.6 1.5-1 2.6-1 1 0 1.9-.5 1.9-1 0-.6.5-1 1-1 1.6 0 7-5.2 7-6.7 0-.7.5-1.3 1-1.3.6 0 1-.9 1-1.9 0-1.1.5-2.3 1-2.6.6-.3 1-3.1 1-6.1 0-6.9-2.8-13.1-8.5-18.3l-4.3-4 2.3-2.7c4.9-5.7 7-11.3 6.9-18.5-.2-10.6-4.1-16.6-13.4-20.8-5.8-2.7-15.9-2.7-21.5-.1zm13 9c.3.5 1.5 1 2.6 1 4.2 0 6.9 4.9 6.9 12.5 0 5.5-1.5 8.9-5.6 13.2-1.5 1.5-3.4 1.7-3.4.3 0-.6-.7-1-1.5-1-3.9 0-11.3-6.4-12.9-11.1-1.9-5.5 2.3-13.9 6.8-13.9.8 0 1.8-.5 2.1-1 .3-.6 1.5-1 2.5-1s2.2.4 2.5 1zm-4 39c.3.5 1.3 1 2.1 1 1.8 0 10.3 5.6 12.1 7.9.7.9 1.3 4.2 1.3 7.3 0 4.9-.4 6-2.8 8.5-4.2 4.1-10.6 5.7-15.7 3.9-4.8-1.7-10.5-6.4-10.5-8.8 0-.9-.4-2-1-2.3-2.7-1.7.4-10 5.8-15.8 2.6-2.7 7.5-3.7 8.7-1.7zM161.2 98.2c-.9.9-1.2 9-1.2 33V163h13v-45.8l3.8-3c8.1-6.4 13.9-7.8 18.4-4.3 4.1 3.2 4.8 8.1 4.8 31.5V163h14v-23.4c0-14.6-.4-23.7-1-24.1-.5-.3-1-1.9-1-3.5 0-4.1-3.9-10.8-7.2-12.2-1.5-.7-2.8-1.6-2.8-2 0-.5-3.8-.8-8.4-.8-8.7 0-13.7 1.7-18.7 6.3-2.4 2.2-2.3 2.3-3.5-2.3-.9-3.2-1.3-3.5-4.9-3.8-2.3-.2-4.6.3-5.3 1zM64 135.5c0 26.3-.3 37.6-1.2 40.5l-1.3 4h-5.7c-5.1 0-5.8.2-5.8 1.9 0 1.1-.4 2.3-1 2.6-1.4.9-1.3 4.8.2 6.3.7.7 4.2 1.2 8.9 1.2 8.6 0 12.9-2 15.9-7.5 3-5.4 3.3-9.5 3.4-47.5l.1-37.5-6.7-.3-6.8-.3v36.6z"/></svg>